<svg width="28" height="27" viewBox="0 0 28 27" fill="none" xmlns="http://www.w3.org/2000/svg">
<g clip-path="url(#clip0_135_611)">
<path d="M10.6021 1.76398C10.6972 1.81881 10.7802 1.89114 10.8462 1.97684C10.9123 2.06255 10.9601 2.15994 10.9871 2.26346C11.014 2.36698 11.0195 2.47459 11.0033 2.58017C10.9871 2.68574 10.9494 2.78719 10.8924 2.87873L6.59602 9.77361H22.1784L17.8803 2.87873C17.7653 2.69384 17.7313 2.47253 17.7857 2.26347C17.8401 2.05442 17.9786 1.87474 18.1706 1.76398C18.3626 1.65322 18.5924 1.62044 18.8095 1.67286C19.0266 1.72528 19.2132 1.85859 19.3282 2.04348L24.146 9.77361H26.1997C26.6473 9.77361 27.0765 9.94481 27.393 10.2496C27.7094 10.5543 27.8872 10.9676 27.8872 11.3986V13.0236C27.8872 13.4546 27.7094 13.8679 27.393 14.1727C27.0765 14.4774 26.6473 14.6486 26.1997 14.6486V21.9611C26.1997 23.0386 25.7552 24.0719 24.9641 24.8337C24.1729 25.5956 23.0998 26.0236 21.981 26.0236H6.79346C5.67457 26.0236 4.60152 25.5956 3.81035 24.8337C3.01918 24.0719 2.57471 23.0386 2.57471 21.9611V14.6486C2.12715 14.6486 1.69793 14.4774 1.38146 14.1727C1.065 13.8679 0.887207 13.4546 0.887207 13.0236V11.3986C0.887207 10.9676 1.065 10.5543 1.38146 10.2496C1.69793 9.94481 2.12715 9.77361 2.57471 9.77361H4.62839L9.44283 2.04348C9.49977 1.95192 9.57488 1.87206 9.66388 1.80845C9.75288 1.74485 9.85402 1.69876 9.96152 1.6728C10.069 1.64685 10.1808 1.64154 10.2904 1.65718C10.4 1.67283 10.5054 1.70912 10.6005 1.76398H10.6021ZM4.26221 14.6486V21.9611C4.26221 22.6076 4.52889 23.2276 5.00359 23.6847C5.47829 24.1418 6.12213 24.3986 6.79346 24.3986H21.981C22.6523 24.3986 23.2961 24.1418 23.7708 23.6847C24.2455 23.2276 24.5122 22.6076 24.5122 21.9611V14.6486H4.26221ZM2.57471 11.3986V13.0236H26.1997V11.3986H2.57471ZM7.63721 16.2736C7.86098 16.2736 8.07559 16.3592 8.23383 16.5116C8.39206 16.664 8.48096 16.8706 8.48096 17.0861V21.9611C8.48096 22.1766 8.39206 22.3833 8.23383 22.5356C8.07559 22.688 7.86098 22.7736 7.63721 22.7736C7.41343 22.7736 7.19882 22.688 7.04059 22.5356C6.88235 22.3833 6.79346 22.1766 6.79346 21.9611V17.0861C6.79346 16.8706 6.88235 16.664 7.04059 16.5116C7.19882 16.3592 7.41343 16.2736 7.63721 16.2736ZM11.0122 16.2736C11.236 16.2736 11.4506 16.3592 11.6088 16.5116C11.7671 16.664 11.856 16.8706 11.856 17.0861V21.9611C11.856 22.1766 11.7671 22.3833 11.6088 22.5356C11.4506 22.688 11.236 22.7736 11.0122 22.7736C10.7884 22.7736 10.5738 22.688 10.4156 22.5356C10.2574 22.3833 10.1685 22.1766 10.1685 21.9611V17.0861C10.1685 16.8706 10.2574 16.664 10.4156 16.5116C10.5738 16.3592 10.7884 16.2736 11.0122 16.2736ZM14.3872 16.2736C14.611 16.2736 14.8256 16.3592 14.9838 16.5116C15.1421 16.664 15.231 16.8706 15.231 17.0861V21.9611C15.231 22.1766 15.1421 22.3833 14.9838 22.5356C14.8256 22.688 14.611 22.7736 14.3872 22.7736C14.1634 22.7736 13.9488 22.688 13.7906 22.5356C13.6324 22.3833 13.5435 22.1766 13.5435 21.9611V17.0861C13.5435 16.8706 13.6324 16.664 13.7906 16.5116C13.9488 16.3592 14.1634 16.2736 14.3872 16.2736ZM17.7622 16.2736C17.986 16.2736 18.2006 16.3592 18.3588 16.5116C18.5171 16.664 18.606 16.8706 18.606 17.0861V21.9611C18.606 22.1766 18.5171 22.3833 18.3588 22.5356C18.2006 22.688 17.986 22.7736 17.7622 22.7736C17.5384 22.7736 17.3238 22.688 17.1656 22.5356C17.0074 22.3833 16.9185 22.1766 16.9185 21.9611V17.0861C16.9185 16.8706 17.0074 16.664 17.1656 16.5116C17.3238 16.3592 17.5384 16.2736 17.7622 16.2736ZM21.1372 16.2736C21.361 16.2736 21.5756 16.3592 21.7338 16.5116C21.8921 16.664 21.981 16.8706 21.981 17.0861V21.9611C21.981 22.1766 21.8921 22.3833 21.7338 22.5356C21.5756 22.688 21.361 22.7736 21.1372 22.7736C20.9134 22.7736 20.6988 22.688 20.5406 22.5356C20.3824 22.3833 20.2935 22.1766 20.2935 21.9611V17.0861C20.2935 16.8706 20.3824 16.664 20.5406 16.5116C20.6988 16.3592 20.9134 16.2736 21.1372 16.2736Z" fill="white"/>
</g>
<defs>
<clipPath id="clip0_135_611">
<rect width="27" height="26" fill="white" transform="translate(0.887207 0.0236206)"/>
</clipPath>
</defs>
</svg>
